<svg width="80" height="80" viewBox="0 0 24 24" xmlns="http://www.w3.org/2000/svg" fill="none" stroke-width="1.5">
  <defs>
      <linearGradient id="iconGradient" x1="0%" y1="0%" x2="100%" y2="100%">
        <stop offset="0%" stop-color="#6a11cb" />
        <stop offset="100%" stop-color="#2575fc" />
      </linearGradient>
  </defs>
  <path stroke="url(#iconGradient)" stroke-linecap="round" stroke-linejoin="round" d="M4 19V6.5C4 6.22386 4.22386 6 4.5 6H19.5C19.7761 6 20 6.22386 20 6.5V19M4 19H20M4 19L4 20.5C4 20.7761 4.22386 21 4.5 21H19.5C19.7761 21 20 20.7761 20 20.5V19M7 15.5V10.5L10 12.5L13.5 9.5L17 13.5"/>
  <path stroke="#B0B0B0" stroke-linecap="round" stroke-linejoin="round" d="M17 3L17 6"/>
  <path stroke="#B0B0B0" stroke-linecap="round" stroke-linejoin="round" d="M12 3L12 6"/>
  <path stroke="#B0B0B0" stroke-linecap="round" stroke-linejoin="round" d="M7 3L7 6"/>
</svg>
